<svg xmlns="http://www.w3.org/2000/svg" viewBox="0 0 1000 1000"><style>.ic{fill:#fff}@media(prefers-color-scheme:light){.ic{fill:#000}}</style><path class="ic" fill-rule="evenodd" d="M500.5,999.5c-67.36,0-132.71-13.19-194.23-39.21-59.42-25.13-112.79-61.11-158.61-106.94-45.83-45.83-81.81-99.19-106.94-158.61C14.69,633.21,1.5,567.87,1.5,500.5v-1c0-67.36,13.19-132.71,39.21-194.23,25.13-59.42,61.11-112.79,106.94-158.61,45.83-45.83,99.19-81.81,158.61-106.94C367.79,13.69,433.13.5,500.5.5s132.71,13.19,194.23,39.21c59.42,25.13,112.79,61.11,158.61,106.94,45.83,45.83,81.81,99.19,106.94,158.61,26.02,61.52,39.21,126.87,39.21,194.23v1c0,67.36-13.19,132.71-39.21,194.23-25.13,59.42-61.11,112.79-106.94,158.61-45.83,45.83-99.19,81.81-158.61,106.94-61.52,26.02-126.87,39.21-194.23,39.21Z M192.32,807.14 807.29,807.14 807.29,422.79 346.07,422.79 346.07,345.92 807.29,345.92 807.29,192.18 192.32,192.18 192.32,576.53 653.55,576.53 653.55,653.4 192.32,653.4 192.32,807.14Z"/></svg>
