<svg xmlns="http://www.w3.org/2000/svg" viewBox="0 0 1000 1000">
  <g opacity="0.15" fill="#fff"><path d="M500.5,999.5c-67.36,0-132.71-13.19-194.23-39.21-59.42-25.13-112.79-61.11-158.61-106.94-45.83-45.83-81.81-99.19-106.94-158.61C14.69,633.21,1.5,567.87,1.5,500.5v-1c0-67.36,13.19-132.71,39.21-194.23,25.13-59.42,61.11-112.79,106.94-158.61,45.83-45.83,99.19-81.81,158.61-106.94C367.79,13.69,433.13.5,500.5.5s132.71,13.19,194.23,39.21c59.42,25.13,112.79,61.11,158.61,106.94,45.83,45.83,81.81,99.19,106.94,158.61,26.02,61.52,39.21,126.87,39.21,194.23v1c0,67.36-13.19,132.71-39.21,194.23-25.13,59.42-61.11,112.79-106.94,158.61-45.83,45.83-99.19,81.81-158.61,106.94-61.52,26.02-126.87,39.21-194.23,39.21Z"/>
    <path d="M500.5,1c67.3,0,132.58,13.18,194.04,39.17,59.36,25.11,112.67,61.05,158.45,106.83,45.78,45.78,81.73,99.09,106.83,158.45,25.99,61.46,39.17,126.74,39.17,194.04v1c0,67.3-13.18,132.58-39.17,194.04-25.11,59.36-61.05,112.67-106.83,158.45s-99.09,81.73-158.45,106.83c-61.46,25.99-126.74,39.17-194.04,39.17s-132.58-13.18-194.04-39.17c-59.36-25.11-112.67-61.05-158.45-106.83-45.78-45.78-81.73-99.09-106.83-158.45C15.18,633.08,2,567.8,2,500.5v-1c0-67.3,13.18-132.58,39.17-194.04,25.11-59.36,61.05-112.67,106.83-158.45,45.78-45.78,99.09-81.73,158.45-106.83C367.92,14.18,433.2,1,500.5,1M500.5,0h0C224.63,0,1,223.63,1,499.5v1c0,275.87,223.63,499.5,499.5,499.5h0c275.87,0,499.5-223.63,499.5-499.5v-1C1000,223.63,776.37,0,500.5,0h0Z"/></g>
  <g opacity="0.15" fill="#fff"><polygon points="192.32 807.14 807.29 807.14 807.29 422.79 346.07 422.79 346.07 345.92 807.29 345.92 807.29 192.18 192.32 192.18 192.32 576.53 653.55 576.53 653.55 653.4 192.32 653.4 192.32 807.14"/></g>
</svg>
