<svg xmlns="http://www.w3.org/2000/svg" id="Layer_1" viewBox="0 0 1000 1000"><defs><clipPath id="clippath"><circle cx="499.81" cy="499.66" r="499.66" class="st2"/></clipPath><style>.st0{opacity:.05}.st2,.st3{fill:none}.st3{stroke:#fff;stroke-linecap:round;stroke-linejoin:round;stroke-width:3.23px}</style></defs><circle id="CIRCLE" cx="500.18" cy="500.04" r="499.66" class="st0"/><path id="HATCH" d="M192.32 807.14h614.97V422.79H346.07v-76.87h461.22V192.18H192.32v384.35h461.23v76.87H192.32z" class="st0" style="fill:#fff;fill-rule:evenodd"/><g style="clip-path:url(#clippath)"><path id="LWPOLYLINE" d="M-38.29 384.35 384.5-38.44" class="st3"/><path id="LWPOLYLINE1" d="M-38.29 999.31 192.32 768.7l38.44 38.44L.15 1037.75" class="st3" data-name="LWPOLYLINE"/><path id="LWPOLYLINE2" d="m-38.29 922.44 230.61-230.61 115.31 115.31-230.61 230.61" class="st3" data-name="LWPOLYLINE"/><path id="LWPOLYLINE3" d="m-38.29 845.57 269.05-269.04-38.44-38.44L-38.29 768.7" class="st3" data-name="LWPOLYLINE"/><path id="LWPOLYLINE4" d="m-38.29 691.83 230.61-230.61 115.31 115.31-76.87 76.87L384.5 807.14l-230.61 230.61" class="st3" data-name="LWPOLYLINE"/><path id="LWPOLYLINE5" d="m230.76 1037.75 230.61-230.61L307.63 653.4l76.87-76.87-192.18-192.18-230.61 230.61" class="st3" data-name="LWPOLYLINE"/><path id="LWPOLYLINE6" d="m307.63 1037.75 230.61-230.61L384.5 653.4l76.87-76.87-269.05-269.05-230.61 230.61" class="st3" data-name="LWPOLYLINE"/><path id="LWPOLYLINE7" d="M461.37-38.44 230.76 192.18 384.5 345.92l-38.43 38.43-153.75-153.74-230.61 230.61" class="st3" data-name="LWPOLYLINE"/><path id="LWPOLYLINE8" d="M538.24-38.44 307.63 192.18l153.74 153.74-76.87 76.87 153.74 153.74-76.87 76.87 153.74 153.74-230.61 230.61" class="st3" data-name="LWPOLYLINE"/><path id="LWPOLYLINE9" d="M615.11-38.44 384.5 192.18l153.74 153.74-76.87 76.87 153.74 153.74-76.87 76.87 153.74 153.74-230.61 230.61" class="st3" data-name="LWPOLYLINE"/><path id="LWPOLYLINE10" d="M845.72-38.44 615.11 192.18l153.74 153.74-76.87 76.87 115.31 115.3 173.56-173.56" class="st3" data-name="LWPOLYLINE"/><path id="LWPOLYLINE11" d="M999.46-38.44 768.85 192.18l38.44 38.43L1037.9 0" class="st3" data-name="LWPOLYLINE"/><path id="LWPOLYLINE12" d="m615.11 1037.75 422.79-422.79" class="st3" data-name="LWPOLYLINE"/><path id="LWPOLYLINE13" d="M691.98-38.44 461.37 192.18l153.74 153.74-76.87 76.87 269.05 269.04 230.61-230.61" class="st3" data-name="LWPOLYLINE"/><path id="LWPOLYLINE14" d="M768.85-38.44 538.24 192.18l153.74 153.74-76.87 76.87 192.18 192.17 187-187" class="st3" data-name="LWPOLYLINE"/><path id="LWPOLYLINE15" d="m906.03 208.73-98.74 98.75-115.31-115.3L922.59-38.44" class="st3" data-name="LWPOLYLINE"/><path id="LWPOLYLINE16" d="M935.89 255.75 768.85 422.79l38.44 38.43 153.74-153.74" class="st3" data-name="LWPOLYLINE"/><path id="LWPOLYLINE17" d="M1037.9 538.09 807.29 768.7 653.55 614.96l-38.44 38.44 153.74 153.74-230.61 230.61" class="st3" data-name="LWPOLYLINE"/><path id="LWPOLYLINE18" d="m434.93 3349.02 6.81-6.81" class="st3" data-name="LWPOLYLINE"/><path id="LWPOLYLINE19" d="m434.93 3358.93 3.71-3.72.62.62-3.71 3.72" class="st3" data-name="LWPOLYLINE"/><path id="LWPOLYLINE20" d="m434.93 3357.69 3.71-3.72 1.86 1.86-3.72 3.72" class="st3" data-name="LWPOLYLINE"/><path id="LWPOLYLINE21" d="m434.93 3356.45 4.33-4.33-.62-.62-3.71 3.71" class="st3" data-name="LWPOLYLINE"/><path id="LWPOLYLINE22" d="m434.93 3353.97 3.71-3.71 1.86 1.86-1.24 1.23 2.48 2.48-3.72 3.72" class="st3" data-name="LWPOLYLINE"/><path id="LWPOLYLINE23" d="m439.26 3359.55 3.72-3.72-2.48-2.48 1.24-1.23-3.1-3.1-3.71 3.71" class="st3" data-name="LWPOLYLINE"/><path id="LWPOLYLINE24" d="m440.5 3359.55 3.71-3.72-2.47-2.48 1.24-1.23-4.34-4.34-3.71 3.72" class="st3" data-name="LWPOLYLINE"/><path id="LWPOLYLINE25" d="m442.98 3342.21-3.72 3.71 2.48 2.48-.62.62-2.48-2.48-3.71 3.72" class="st3" data-name="LWPOLYLINE"/><path id="LWPOLYLINE26" d="m444.21 3342.21-3.71 3.71 2.48 2.48-1.24 1.24 2.47 2.48-1.23 1.23 2.47 2.48-3.71 3.72" class="st3" data-name="LWPOLYLINE"/><path id="LWPOLYLINE27" d="m445.45 3342.21-3.71 3.71 2.47 2.48-1.23 1.24 2.47 2.48-1.24 1.23 2.48 2.48-3.71 3.72" class="st3" data-name="LWPOLYLINE"/><path id="LWPOLYLINE28" d="m449.17 3342.21-3.72 3.71 2.48 2.48-1.24 1.24 1.86 1.86 2.79-2.8" class="st3" data-name="LWPOLYLINE"/><path id="LWPOLYLINE29" d="m451.64 3342.21-3.71 3.71.62.62 3.71-3.71" class="st3" data-name="LWPOLYLINE"/><path id="LWPOLYLINE30" d="m445.45 3359.55 6.81-6.82" class="st3" data-name="LWPOLYLINE"/><path id="LWPOLYLINE31" d="m446.69 3342.21-3.71 3.71 2.47 2.48-1.24 1.24 4.34 4.33 3.71-3.71" class="st3" data-name="LWPOLYLINE"/><path id="LWPOLYLINE32" d="m447.93 3342.21-3.72 3.71 2.48 2.48-1.24 1.24 3.1 3.09 3.01-3.01" class="st3" data-name="LWPOLYLINE"/><path id="LWPOLYLINE33" d="m450.14 3346.19-1.59 1.59-1.86-1.86 3.72-3.71" class="st3" data-name="LWPOLYLINE"/><path id="LWPOLYLINE34" d="m450.62 3346.95-2.69 2.69.62.62 2.48-2.48" class="st3" data-name="LWPOLYLINE"/><path id="LWPOLYLINE35" d="m452.26 3351.5-3.71 3.71-2.48-2.48-.62.62 2.48 2.48-3.72 3.72" class="st3" data-name="LWPOLYLINE"/><circle id="CIRCLE1" cx="499.81" cy="499.66" r="499.66" class="st2" data-name="CIRCLE"/></g></svg>