<svg xmlns="http://www.w3.org/2000/svg" viewBox="0 0 1000 1000"><defs><style>.st0{fill:none;stroke:#000;stroke-linecap:round;stroke-linejoin:round;stroke-width:4px}</style></defs><g id="base"><circle id="circle" cx="500.2" cy="500" r="499.7" style="opacity:.05"/></g><g id="overlay"><path id="s" d="M192.3 807.1h615V422.8H346.1v-76.9h461.2V192.2h-615v384.3h461.2v76.9H192.3z" style="fill-rule:evenodd;opacity:.05"/></g><g id="lines"><path id="LWPOLYLINE" d="m38.5 307.5 270-269" class="st0"/><path id="LWPOLYLINE1" d="m128.5 833.5 64.1-64.7 38.5 38.4-64.6 64.3" class="st0" data-name="LWPOLYLINE"/><path id="LWPOLYLINE2" d="m93.5 790.5 99.1-98.6L308 807.2l-98.5 98.3" class="st0" data-name="LWPOLYLINE"/><path id="LWPOLYLINE3" d="m63.5 743.5 167.6-166.9-38.5-38.4L38.5 692.5" class="st0" data-name="LWPOLYLINE"/><path id="LWPOLYLINE4" d="m18.5 634.5 174.1-173.2L308 576.6l-76.9 76.9 153.7 153.7-128.3 128.3" class="st0" data-name="LWPOLYLINE"/><path id="LWPOLYLINE5" d="m308 961 153.7-153.8L308 653.5l76.8-76.9-192.2-192.2L5.5 571.5" class="st0" data-name="LWPOLYLINE"/><path id="LWPOLYLINE6" d="m364.5 980.5 174.1-173.3-153.8-153.7 76.9-76.9-269.1-269L.5 499.5" class="st0" data-name="LWPOLYLINE"/><path id="LWPOLYLINE7" d="M416.2 7.2 231.1 192.3 384.8 346l-38.4 38.4-153.8-153.7L7.5 415.5" class="st0" data-name="LWPOLYLINE"/><path id="LWPOLYLINE8" d="M500.1.1 308 192.3 461.7 346l-76.9 76.9 153.8 153.7-76.9 76.9 153.7 153.7-186.9 187.3" class="st0" data-name="LWPOLYLINE"/><path id="LWPOLYLINE9" d="M571.5 5.5 384.8 192.3 538.6 346l-76.9 76.9 153.7 153.7-76.8 76.9 153.7 153.7-191.8 192.3" class="st0" data-name="LWPOLYLINE"/><path id="LWPOLYLINE10" d="m744.3 63.3-128.9 129L769.2 346l-76.9 76.9 115.3 115.3 173.6-173.6" class="st0" data-name="LWPOLYLINE"/><path id="LWPOLYLINE11" d="m833.7 127.7-64.5 64.6 38.4 38.4 64.5-64.5" class="st0" data-name="LWPOLYLINE"/><path id="LWPOLYLINE12" d="m692.5 961.5 269.1-269.9" class="st0" data-name="LWPOLYLINE"/><path id="LWPOLYLINE13" d="M635.5 18.5 461.7 192.3 615.4 346l-76.8 76.9 269 269 192.2-192.1" class="st0" data-name="LWPOLYLINE"/><path id="LWPOLYLINE14" d="M692.4 38.4 538.6 192.3 692.3 346l-76.9 76.9L807.6 615l187-187" class="st0" data-name="LWPOLYLINE"/><path id="LWPOLYLINE15" d="m906.4 208.8-98.8 98.8-115.3-115.3 99-99" class="st0" data-name="LWPOLYLINE"/><path id="LWPOLYLINE16" d="m936.2 255.8-167 167.1 38.4 38.4 153.8-153.7" class="st0" data-name="LWPOLYLINE"/><path id="LWPOLYLINE17" d="M992.7 583.7 807.6 768.8 653.9 615l-38.5 38.5 153.8 153.7-184.7 185.3" class="st0" data-name="LWPOLYLINE"/></g></svg>